<svg xmlns="http://www.w3.org/2000/svg" width="896" height="484"><path d="M0 0h896v484H0V0Z" fill="#FEFEFE"/><path d="m353.563 45.563 2.42-.061 2.396.002 2.111-.006c6.79 1.358 11.903 5.305 16.633 10.15l1.703 1.695c1.864 1.86 3.713 3.734 5.563 5.608a3906.553 3906.553 0 0 1 14.889 14.954c3.792 3.821 7.596 7.63 11.398 11.44 7.2 7.218 14.392 14.446 21.578 21.678a31415.32 31415.32 0 0 0 31.662 31.801l2.349 2.357 4.638 4.654c4.521 4.536 9.039 9.076 13.553 13.619 2.81 2.827 5.622 5.652 8.435 8.477 1.301 1.308 2.602 2.617 3.901 3.926 1.777 1.792 3.558 3.58 5.34 5.368l1.545 1.563c3.29 3.294 6.733 6.258 10.323 9.212 8.427 9.045 11.283 19.703 11.148 31.762-.185 4.054-.783 7.43-2.148 11.238l-.965 2.8C517.402 250.08 509.838 259.082 498 265c-1.886.1-3.776.135-5.665.14l-3.652.018-4.03.003-4.228.015c-3.838.013-7.675.02-11.512.024l-7.202.012c-7.519.013-15.038.023-22.557.027-8.662.004-17.324.022-25.986.05-6.704.023-13.407.033-20.11.034-4 .001-7.998.007-11.997.025-3.77.016-7.541.018-11.312.01-2.026-.002-4.05.012-6.076.026-14.545-.065-28.033-3.506-38.986-13.564-11.92-12.858-15.997-25.731-15.962-42.93l-.015-3.936a2374.58 2374.58 0 0 1-.012-10.63c.001-2.97-.003-5.939-.008-8.908-.011-7.013-.012-14.026-.006-21.039.006-7.207-.006-14.414-.027-21.621-.018-6.211-.024-12.422-.02-18.633.001-3.7-.001-7.398-.015-11.097-.015-4.133-.006-8.265.006-12.398l-.023-3.657c.091-14.89 4.123-28.08 14.418-39.123 9.049-8.458 18.197-12.396 30.54-12.285Z" fill="#5A61AD"/><path d="M419 98c12.31-.07 24.62-.123 36.929-.155 5.717-.016 11.433-.037 17.15-.071 5.524-.033 11.049-.05 16.573-.059 2.1-.005 4.2-.016 6.3-.032 18.83-.14 35.134 1.445 49.486 15.13 11.01 11.831 15.197 24.783 15.048 40.783l.011 3.947c.01 3.535-.005 7.07-.026 10.605-.017 3.72-.014 7.44-.013 11.16-.002 6.242-.019 12.484-.046 18.726-.032 7.194-.042 14.387-.04 21.581 0 7.696-.013 15.39-.032 23.086-.004 2.203-.005 4.405-.006 6.607a2692.54 2692.54 0 0 1-.043 12.355l.002 3.659c-.121 16.112-4.495 29.774-15.91 41.557-9.068 8.072-19.404 11.785-31.496 11.398-12.66-1.216-19.83-10.062-28.367-18.66l-2.352-2.355c-2.454-2.46-4.905-4.923-7.356-7.387l-4.966-4.98c-3.69-3.7-7.378-7.4-11.06-11.106a416.014 416.014 0 0 0-3.363-3.333C452.1 267.2 452.1 267.2 451 265l1.724.002c5.954.003 11.908-.037 17.862-.1a690.49 690.49 0 0 1 6.654-.022c3.201.003 6.4-.033 9.6-.075l2.974.027c7.298-.152 11.54-2.31 17.186-6.832l2.84-2.055c8.756-7.885 13.486-20.441 14.398-31.953.246-10.334-1.703-19.727-8.238-27.992l-1.305-1.664a64.141 64.141 0 0 0-8.365-8.534c-4.48-3.881-8.673-8.005-12.857-12.2l-2.457-2.451c-2.654-2.65-5.304-5.303-7.954-7.956l-5.548-5.545c-3.861-3.86-7.72-7.722-11.579-11.585-4.464-4.47-8.932-8.935-13.402-13.4-4.306-4.301-8.61-8.606-12.913-12.912l-5.493-5.49a6776.877 6776.877 0 0 1-7.635-7.641l-2.314-2.308-2.08-2.09-1.824-1.824C419 99 419 99 419 98Z" fill="#73BAF5"/><path d="m353.563 45.563 2.42-.061 2.396.002 2.111-.006c9.34 1.867 15.184 8.633 21.572 15.139l3.127 3.137c2.171 2.178 4.336 4.363 6.495 6.553 2.773 2.814 5.558 5.616 8.346 8.414 2.66 2.67 5.316 5.345 7.97 8.02l1.54 1.551a617183562.305 617183562.305 0 0 0 6.73 6.81C418 97 418 97 418 98l-1.724-.002a1623.09 1623.09 0 0 0-17.862.1 690.49 690.49 0 0 1-6.654.022c-3.201-.003-6.4.033-9.6.075l-2.974-.027c-9.062.188-14.34 4.155-20.873 10.082-8.404 8.909-13.382 20.545-13.75 32.813.575 15.011 6.107 25.23 16.58 35.55l2.8 2.807a1821.81 1821.81 0 0 0 7.58 7.541c2.652 2.632 5.294 5.274 7.937 7.915 4.433 4.427 8.874 8.846 13.32 13.261 5.71 5.67 11.409 11.35 17.104 17.036a18112.594 18112.594 0 0 0 17.862 17.806c3.453 3.442 6.91 6.879 10.37 10.314l2.65 2.643 2.414 2.391 2.101 2.089c1.645 1.662 1.645 1.662 3.719 2.584v2c-12.31.07-24.62.123-36.929.155-5.717.016-11.433.037-17.15.071-5.524.033-11.049.05-16.573.059-2.1.005-4.2.016-6.3.032-17.588.131-33.708-.96-47.36-13.497-11.92-12.858-15.998-25.731-15.963-42.93l-.015-3.936a2374.58 2374.58 0 0 1-.012-10.63c.001-2.97-.003-5.939-.008-8.908-.011-7.013-.012-14.026-.006-21.039.006-7.207-.006-14.414-.027-21.621-.018-6.211-.024-12.422-.02-18.633.001-3.7-.001-7.398-.015-11.097-.015-4.133-.006-8.265.006-12.398l-.023-3.657c.091-14.89 4.123-28.08 14.418-39.123 9.049-8.458 18.197-12.396 30.54-12.285Z" fill="#D8677C"/><path d="m749.758 348.637 2.007-.002c1.404.003 2.808.012 4.212.029 2.12.023 4.239.02 6.359.014 12.713.024 22.053 1.326 31.644 10.142 8.157 8.592 9.647 17.27 9.563 28.776-.254 7.031-1.654 12.457-5.543 18.404l-1.352 2.258c-3.45 5.225-7.777 8.522-13.648 10.742h-4v2c-5.233.074-10.465.129-15.698.165-1.781.015-3.562.035-5.343.061-2.557.037-5.113.054-7.67.067-.799.015-1.598.03-2.421.047-2.244 0-2.244 0-5.868-.34-2.376-3.564-2.258-5.121-2.275-9.352l-.029-3.974.003-4.299-.013-4.405c-.007-3.076-.007-6.153-.002-9.23.006-3.944-.01-7.889-.034-11.833-.015-3.032-.016-6.063-.013-9.095 0-1.455-.005-2.91-.015-4.364-.013-2.032-.004-4.064.006-6.096l-.002-3.506c.374-2.846.374-2.846 1.707-4.72 2.699-1.823 5.215-1.497 8.425-1.49Z" fill="#FBFBFB"/><path d="m433.205 348.722 2.147.012 2.22-.005c1.556-.002 3.11.002 4.666.01 2.357.01 4.713 0 7.07-.012 1.515 0 3.03.003 4.544.007l2.11-.012c8.33.078 15.404 2.13 22.038 7.278 4.684 5.164 5.343 8.388 5.29 15.23-.398 3.805-1.76 5.95-4.29 8.77l-3 2 1.645 1.207 2.168 1.606 2.144 1.582c3.088 2.426 4.781 3.82 6.043 7.605.725 6.995.707 12.617-3.594 18.387-5.047 5.79-11.297 8.057-18.874 8.881-2.486.091-4.955.097-7.442.06l-2.708-.006c-1.866-.006-3.732-.02-5.599-.04a963.19 963.19 0 0 0-8.61-.048l-5.458-.03-2.607-.014c-5.99-.073-5.99-.073-7.108-1.19a139.92 139.92 0 0 1-.145-6.416l-.01-2.03c-.01-2.225-.012-4.45-.013-6.675l-.01-4.622c-.006-3.234-.008-6.468-.007-9.703 0-4.15-.014-8.301-.031-12.452-.011-3.184-.013-6.367-.013-9.55 0-1.531-.005-3.062-.013-4.593-.01-2.138-.007-4.276 0-6.414l-.005-3.692c.444-5.127 2.86-5.087 7.452-5.13Z" fill="#393938"/><path d="m676.633 348.7 2.276-.014c1.592-.006 3.185-.006 4.777-.002 2.41.003 4.818-.02 7.228-.045 7.86-.033 14.775.147 22.086 3.361l1.898.834c6.095 3.015 9.056 7.427 11.414 13.603 1.53 7.93.997 13.666-3.312 20.563-4.423 5.375-9.222 7.109-16 8v2h2c1.375 1.363 1.375 1.363 3 3.313 2.166 2.573 4.357 5.06 6.684 7.492l2.754 2.882 2.62 2.7C726 416 726 416 726.349 418.77 726 421 726 421 725 422c-3.043.369-4.49.377-6.992-1.469l-1.883-2.031-2.086-2.223a577551191.713 577551191.713 0 0 1-3.828-4.273c-.565-.64-1.13-1.281-1.711-1.942l-1.777-1.968C705 406 705 406 703.559 403.53c-2.013-3.065-3.377-4.631-6.559-6.531-7.213-1.407-14.682-1.197-22-1l.048 2.064c.062 3.083.101 6.165.14 9.248l.076 3.249.029 3.115.048 2.872C675 419 675 419 673.646 420.844 672 422 672 422 669.375 421.813 667 421 667 421 666 419a145.52 145.52 0 0 1-.161-6.438l-.015-2c-.015-2.188-.022-4.375-.027-6.562l-.017-4.55c-.01-3.182-.017-6.363-.02-9.544-.006-4.082-.03-8.165-.058-12.247-.019-3.133-.024-6.266-.026-9.399a675.673 675.673 0 0 0-.024-4.516 564.13 564.13 0 0 1-.008-6.307l-.011-3.628c.12-.927.242-1.854.367-2.809 3.653-2.435 6.407-2.306 10.633-2.3Z" fill="#3D3D3C"/><path d="M617.97 347.183c2.727 1.098 3.206 2.285 4.518 4.891l1.368 2.668 1.457 2.945 1.553 3.06c1.42 2.805 2.828 5.616 4.228 8.432.93 1.87 1.865 3.74 2.8 5.609l.969 1.936.977 1.952c1.952 3.9 3.9 7.803 5.84 11.711 3.844 7.742 7.81 15.39 12.097 22.898 1.277 2.835 1.499 4.646 1.223 7.715l-7 1-10-19-43-1-2 7a110.867 110.867 0 0 1-3.562 6.375l-1.88 3.148C586 421 586 421 585 422c-2.5.125-2.5.125-5 0-1-1-1-1-1.312-3.563.404-4.448 2.13-7.6 4.312-11.437h2v-4h2l.334-2.15c.731-3.129 1.87-5.6 3.326-8.463l1.645-3.26 1.758-3.44 3.566-7.042 1.754-3.451a971.714 971.714 0 0 0 5.138-10.331c8.917-18.1 8.917-18.1 13.448-17.68Z" fill="#393938"/><path d="M245.032 347.12c2.634 1.178 3.166 2.392 4.456 4.954l1.368 2.668 1.457 2.945 1.553 3.06c1.42 2.805 2.828 5.616 4.228 8.432a2704.74 2704.74 0 0 0 3.769 7.545l.977 1.952c1.952 3.9 3.9 7.803 5.837 11.711 3.85 7.76 7.84 15.408 12.198 22.898 1.284 3.098 1.142 4.567.125 7.715-2.312.687-2.312.687-5 1-3-3-3-3-11-19l-43-1-1 4a214.06 214.06 0 0 1-3.437 7.125l-.948 1.918c-1.34 2.667-2.49 4.832-4.615 6.957-4.556-.556-4.556-.556-6-2 .314-6.186 2.583-10.59 5.563-15.938a3418.36 3418.36 0 0 0 2.75-5.082l1.382-2.545c1.866-3.483 3.623-7.015 5.368-10.56 3.124-6.317 6.383-12.555 9.71-18.768 2.791-5.23 5.414-10.519 7.938-15.884 1.592-2.746 2.993-4.3 6.321-4.103Z" fill="#363635"/><path d="M297.426 348.625c2.574.375 2.574.375 4.242 2l1.52 2.375 1.812 2.781 2 3.219 2.25 3.594a1479.58 1479.58 0 0 1 3.684 5.922C318.08 376.814 323.542 384.904 329 393l1.54-2.527c.687-1.126 1.376-2.251 2.085-3.41l2.04-3.34c1.664-2.69 3.4-5.32 5.17-7.942 2.308-3.433 4.479-6.923 6.603-10.472l1.773-2.92c1.208-1.994 2.4-3.997 3.578-6.008l1.774-2.885 1.566-2.62C357 349 357 349 360.215 348.72L363 349c1.433 2.866 1.135 5.326 1.145 8.53l.01 2.03c.01 2.22.012 4.44.013 6.659l.01 4.618c.006 3.228.008 6.456.007 9.684 0 4.143.014 8.286.031 12.429.011 3.18.013 6.358.013 9.538 0 1.527.005 3.055.013 4.583.01 2.133.007 4.266 0 6.4l.005 3.682C364 420 364 420 362 422l-6-1-1-53-11 18c-2.186 3.377-4.373 6.733-6.625 10.063l-1.559 2.33c-4.377 6.519-4.377 6.519-7.093 7.064C326 405 326 405 323.746 402.387a153.254 153.254 0 0 1-2.308-3.7l-1.264-1.99c-.91-1.44-1.813-2.885-2.71-4.334a673.24 673.24 0 0 0-4.745-7.52 1978.476 1978.476 0 0 1-7.663-12.11C304 371 304 371 303 369l-.025 1.923a6004.9 6004.9 0 0 1-.292 19.757c-.039 2.46-.074 4.92-.105 7.38-.045 3.53-.103 7.059-.164 10.588l-.035 3.35-.06 3.093-.04 2.732C302 420 302 420 300 422c-2.5.25-2.5.25-5 0-2.811-2.811-2.254-4.591-2.259-8.53l-.01-2.03c-.01-2.22-.003-4.439.003-6.659l-.005-4.618c-.003-3.228 0-6.456.01-9.684.012-4.143.005-8.286-.007-12.429-.007-3.18-.005-6.358 0-9.538.002-1.527 0-3.055-.005-4.583-.005-2.133.003-4.266.014-6.4l.005-3.682c.325-3.643 1.026-4.657 4.68-5.222Z" fill="#3C3B3B"/><path d="m749.758 348.637 2.007-.002c1.404.003 2.808.012 4.212.029 2.12.023 4.239.02 6.359.014 12.713.024 22.053 1.326 31.644 10.142 8.157 8.592 9.647 17.27 9.563 28.776-.254 7.031-1.654 12.457-5.543 18.404l-1.352 2.258c-3.45 5.225-7.777 8.522-13.648 10.742h-4v2c-5.233.074-10.465.129-15.698.165-1.781.015-3.562.035-5.343.061-2.557.037-5.113.054-7.67.067-.799.015-1.598.03-2.421.047-2.244 0-2.244 0-5.868-.34-2.376-3.564-2.258-5.121-2.275-9.352l-.029-3.974.003-4.299-.013-4.405c-.007-3.076-.007-6.153-.002-9.23.006-3.944-.01-7.889-.034-11.833-.015-3.032-.016-6.063-.013-9.095 0-1.455-.005-2.91-.015-4.364-.013-2.032-.004-4.064.006-6.096l-.002-3.506c.374-2.846.374-2.846 1.707-4.72 2.699-1.823 5.215-1.497 8.425-1.49ZM748 357v57c21.762 1.591 21.762 1.591 39.395-7.188 6.764-7.636 7.975-15.301 7.882-25.199-.648-8.44-4.184-14.865-10.277-20.613-11.623-5.895-11.623-5.895-37-4Z" fill="#393939"/><path d="M557.188 353.25c8.688 5.88 14.276 13.233 16.492 23.566 1.638 11.166-.739 21.929-7.149 31.309-5.934 7.266-13.008 13.068-22.57 14.094-11.843.824-21.218-.14-30.711-7.781-7.894-7.489-12.212-17.315-12.563-28.125.242-11.364 3.13-20.686 10.942-29.06 12.452-11.584 31.136-12.375 45.558-4.003Zm-41.06 10.754c-7.047 8.907-7.135 18.035-6.128 28.996 1.674 7.44 6.743 13.88 12.844 18.352 7.048 4.015 14.967 4.394 22.781 2.71 7.332-2.297 12.934-7.257 16.875-13.812 3.641-7.89 4.15-19.43 1.438-27.75-3.35-7.109-8.896-12.24-15.938-15.5-11.88-2.996-23.225-2.256-31.871 7.004Z" fill="#3D3C3C"/><path d="M150.114 348.66h3.154l3.4.047 3.485.013c3.678.017 7.356.054 11.035.092 2.491.016 4.983.03 7.474.042 6.113.033 12.225.083 18.338.146l2 5c-2 2-2 2-4.025 2.24l-2.517-.013h-2.85l-3.085-.032-3.152-.008c-3.332-.011-6.664-.037-9.996-.062-2.255-.01-4.51-.02-6.766-.027-5.536-.02-11.072-.06-16.609-.098v26h45c1 5 1 5 0 7h-45v25l10.21-.07c3.254-.016 6.507-.028 9.76-.04 2.267-.01 4.533-.024 6.799-.04 3.251-.025 6.503-.036 9.754-.045l3.085-.032h2.85l2.517-.014C197 414 197 414 199 416c-.536 3.536-.536 3.536-2 5a84.11 84.11 0 0 1-4.947.161l-3.196.03-3.478.012-3.546.017c-2.481.01-4.962.016-7.443.02-3.808.01-7.615.041-11.423.072-2.404.007-4.809.012-7.213.016l-3.472.038-3.206-.01-2.83.011c-.741-.12-1.482-.242-2.246-.367-2.376-3.564-2.258-5.121-2.275-9.352l-.029-3.974.003-4.299-.013-4.405c-.007-3.076-.007-6.153-.002-9.23.006-3.944-.01-7.889-.034-11.833-.015-3.032-.016-6.063-.013-9.095 0-1.455-.005-2.91-.015-4.364-.013-2.032-.004-4.064.006-6.096l-.002-3.506C142 352 142 352 143.204 350.124c2.418-1.513 4.064-1.485 6.91-1.465Z" fill="#323332"/><path d="m675 357 14.625-.188 4.58-.082 3.647-.023 3.713-.048c5.201.516 9.134 2.601 12.747 6.341l1.489 1.5c3.241 4.054 2.607 9.606 2.199 14.5-1.39 3.998-3.317 5.349-6.938 7.25-4.964 2.334-9.08 2.873-14.578 2.848l-3.415-.008-4.319-.027L675 389v-32Z" fill="#FCFCFC"/><path d="M434 387c4.839-.092 9.675-.172 14.514-.22 1.643-.02 3.286-.047 4.929-.082 2.373-.049 4.746-.071 7.12-.089l2.194-.062c5.488-.003 9.645 1.438 14.243 4.453 3.069 3.452 3.488 6.604 3.277 11.078-.433 3-1.297 4.623-3.277 6.922-6.125 4.477-11.755 5.129-19.27 5.098l-2.063-.005c-2.16-.005-4.32-.018-6.48-.03-1.47-.006-2.94-.01-4.412-.014-3.591-.01-7.183-.03-10.775-.049v-27Z" fill="#FBFBFB"/><path d="m73.887 348.741 3.741-.019 4.06.012 4.147-.005c2.898-.003 5.797 0 8.695.01 3.72.012 7.439.005 11.158-.007 2.855-.007 5.71-.005 8.565 0 1.371.002 2.743 0 4.115-.005 1.915-.005 3.83.004 5.745.014l3.306.005C130 349 130 349 132 351c-.556 4.556-.556 4.556-2 6h-27v64l-7 1c-1-1-1-1-1.12-3.55l.006-3.439v-3.882l.016-4.227.005-4.3c.003-3.78.013-7.56.024-11.339.01-3.854.015-7.708.02-11.562.01-7.567.028-15.134.049-22.701l-2.554.016c-3.118.017-6.236.03-9.354.039-1.351.005-2.702.012-4.054.02-1.938.013-3.877.018-5.815.023l-3.54.016C67 357 67 357 66 356c-.188-2.438-.188-2.438 0-5 2.703-2.703 4.106-2.253 7.887-2.259Z" fill="#343434"/><path d="M434 357c4.02-.046 8.04-.086 12.06-.11 1.366-.01 2.732-.023 4.097-.04 1.971-.025 3.942-.035 5.913-.045l3.587-.032c4.9.333 8.276 1.397 12.156 4.414 2.697 3.469 3.264 5.427 3.187 9.813-1.372 3.397-2.57 5.328-5.953 6.918-7.429 2.364-14.426 2.431-22.172 2.27l-3.766-.042c-3.036-.035-6.073-.088-9.109-.146v-23Z" fill="#FCFCFC"/><path d="M243 361h2c1.295 2.394 2.586 4.79 3.875 7.188l1.105 2.04C255 379.584 255 379.584 255 384h2a875.282 875.282 0 0 1 2 4.375l1.125 2.46C261 393 261 393 261 395h-35c5.38-11.515 10.888-22.858 17-34Z" fill="#F6F6F6"/><path d="M616 361h2c2.284 4.518 4.562 9.039 6.836 13.562.775 1.54 1.55 3.078 2.328 4.615 1.116 2.208 2.226 4.417 3.336 6.628l1.06 2.09C634 392.772 634 392.772 634 395h-34c.942-4.71 2.459-8.3 4.625-12.5l1.07-2.107c3.33-6.522 6.787-12.972 10.305-19.393Z" fill="#FBFBFB"/><path d="m383.684 383.886 3.539.016 3.818.01 4.022.025A3768.67 3768.67 0 0 1 409 384l1.999 5c-3.258 2.93-5.414 3.384-9.754 3.398l-3.338.012-3.47-.035-3.483.035-3.334-.012-3.049-.01C382 392 382 392 380.133 390.608 379 389 379 389 379.25 386.875c1.143-2.857 1.221-2.853 4.434-2.989Z" fill="#3F3E3D"/><path d="m427 350 3 1-2 2c-.465 3.122-.465 3.122-.625 6.625l-.227 3.602L427 366h-1c-.027-2.48-.047-4.958-.063-7.438l-.025-2.142c-.009-1.807.036-3.614.088-5.42l1-1Z" fill="#2C2D2B"/></svg>