<?xml version="1.0" encoding="UTF-8"?>
<svg version="1.1" xmlns="http://www.w3.org/2000/svg" width="896" height="484">
<path d="M0 0 C295.68 0 591.36 0 896 0 C896 159.72 896 319.44 896 484 C600.32 484 304.64 484 0 484 C0 324.28 0 164.56 0 0 Z " fill="#FEFEFE" transform="translate(0,0)"/>
<path d="M0 0 C0.79857422 -0.01998047 1.59714844 -0.03996094 2.41992188 -0.06054688 C3.21076172 -0.05990234 4.00160156 -0.05925781 4.81640625 -0.05859375 C5.5132251 -0.06044678 6.21004395 -0.0622998 6.92797852 -0.06420898 C13.71684978 1.2930369 18.83018571 5.24052837 23.56021118 10.08592224 C24.4032842 10.92492706 24.4032842 10.92492706 25.26338899 11.78088146 C27.12743989 13.64071601 28.97689234 15.51439534 30.82666016 17.38842773 C32.16697326 18.73150879 33.50817869 20.07369985 34.85020447 21.41506958 C38.48083463 25.04881561 42.09908334 28.69466846 45.71534777 32.34270358 C49.50735968 36.16351836 53.31117199 39.972547 57.11386108 43.7827301 C64.3143538 51.00080184 71.50501513 58.22858124 78.69181669 65.46028239 C89.23634973 76.06999569 99.79353951 86.66710345 110.35321617 97.26174259 C111.12847228 98.03956811 111.90372838 98.81739363 112.7024771 99.61878961 C114.24855697 101.16996768 115.79466991 102.7211128 117.34081686 104.27222401 C121.86186556 108.80850613 126.37933606 113.3483138 130.89374185 117.89120662 C133.70378183 120.71829165 136.51579668 123.54340679 139.3282032 126.36813736 C140.62955269 127.67613829 141.93001181 128.98502577 143.22950172 130.29487419 C145.00691974 132.08628646 146.78746633 133.87453289 148.5687561 135.66209412 C149.33394497 136.43574496 149.33394497 136.43574496 150.11459219 137.22502512 C153.40541922 140.51908526 156.84729971 143.48353333 160.4375 146.4375 C168.86476576 155.48276525 171.72007509 166.14024957 171.5859375 178.19921875 C171.40011805 182.2530167 170.80206984 185.62956427 169.4375 189.4375 C169.11910156 190.36175781 168.80070313 191.28601563 168.47265625 192.23828125 C163.83911788 204.51637788 156.27556223 213.51846889 144.4375 219.4375 C142.55139922 219.53757127 140.66172585 219.57260047 138.77297974 219.57794189 C136.96479012 219.58650711 136.96479012 219.58650711 135.12007141 219.59524536 C133.77682505 219.59649083 132.43357858 219.5976159 131.09033203 219.59863281 C129.68095265 219.60326046 128.27157453 219.60828505 126.86219788 219.61367798 C123.02485658 219.62681823 119.18753281 219.63325131 115.35017252 219.63768864 C112.94965155 219.6406197 110.54913536 219.64472481 108.14861679 219.64919281 C100.62971268 219.66287852 93.11081951 219.67253715 85.59190381 219.6763947 C76.92955728 219.68086358 68.26736948 219.69835226 59.60507119 219.7273953 C52.90171081 219.74908435 46.19839482 219.75910299 39.49499977 219.76043582 C35.49611746 219.76147966 31.49738414 219.76729589 27.49853897 219.78525543 C23.72775251 219.80185904 19.95722494 219.80383277 16.18641472 219.79511642 C14.16099524 219.79399108 12.13558389 219.80761741 10.11021423 219.8218689 C-4.43430653 219.75620997 -17.92210697 216.31551716 -28.875 206.2578125 C-40.79511843 193.3995366 -44.87223505 180.52613818 -44.8371582 163.32714844 C-44.84226913 162.02852371 -44.84738007 160.72989899 -44.85264587 159.391922 C-44.86597139 155.84828562 -44.86662155 152.30475634 -44.86408257 148.76109982 C-44.86300801 145.79185364 -44.86790883 142.82262871 -44.872688 139.85338712 C-44.88376189 132.84055553 -44.88423319 125.8277775 -44.87817383 118.81494141 C-44.87214162 111.60768053 -44.88443067 104.40061526 -44.9057439 97.19338775 C-44.92342784 90.98246202 -44.92935042 84.77159815 -44.92610615 78.5606482 C-44.92430321 74.86144071 -44.92682923 71.16237261 -44.94082069 67.46318817 C-44.95586828 63.3304754 -44.94636991 59.19815377 -44.93481445 55.06542969 C-44.94245819 53.85879166 -44.95010193 52.65215363 -44.95797729 51.40895081 C-44.86643005 36.51921519 -40.83463747 23.32908799 -30.5390625 12.28515625 C-21.49087828 3.827071 -12.34204404 -0.11010745 0 0 Z " fill="#5A61AD" transform="translate(353.5625,45.5625)"/>
<path d="M0 0 C12.30956026 -0.06972867 24.61907298 -0.12292703 36.92879105 -0.15543652 C42.64563255 -0.17104501 48.36233821 -0.19219485 54.07910156 -0.22631836 C59.60341464 -0.2590841 65.12759762 -0.27688918 70.65200043 -0.28463173 C72.75216467 -0.29014446 74.85232236 -0.30090892 76.95243073 -0.31719017 C95.78285991 -0.45727462 112.08583801 1.12785678 126.4375 14.8125 C137.44831485 26.64421839 141.63525804 39.59619351 141.48583984 55.59619141 C141.48963654 56.89861282 141.49343323 58.20103424 141.49734497 59.54292297 C141.50694122 63.07808716 141.49185963 66.61273703 141.47143888 70.14783907 C141.45371108 73.86803261 141.45739596 77.58821397 141.4581604 81.30844116 C141.45629462 87.55044017 141.43902738 93.79224326 141.41162109 100.03417969 C141.38015048 107.22790463 141.36962633 114.42141563 141.3710922 121.61520445 C141.37244794 129.31060532 141.35854305 137.00592491 141.34019899 144.7013011 C141.33595775 146.90354826 141.33451959 149.10578212 141.33372116 151.30803299 C141.33132035 155.42632173 141.3118244 159.5443633 141.29052734 163.66259766 C141.29143372 164.87014206 141.29234009 166.07768646 141.29327393 167.32182312 C141.1718995 183.43374082 136.79837561 197.09572331 125.3828125 208.87890625 C116.31513745 216.95062355 105.97948082 220.66443601 93.88671875 220.27734375 C81.22781928 219.06113013 74.05685991 210.21483754 65.51953125 201.6171875 C64.74365158 200.83989288 63.96777191 200.06259827 63.16838074 199.26174927 C60.71403844 196.80186104 58.26320918 194.33850725 55.8125 191.875 C54.15713455 190.21461092 52.5015376 188.55445259 50.84570312 186.89453125 C47.15627437 183.19522074 43.46777978 179.49499421 39.78555298 175.78851318 C38.67067248 174.67178436 37.5507031 173.56008574 36.42318726 172.45611572 C33.09954246 169.19908493 33.09954246 169.19908493 32 167 C32.56883408 167.00079559 33.13766815 167.00159119 33.72373962 167.00241089 C39.67843179 167.00486069 45.6318309 166.96542228 51.58618164 166.90234375 C53.80421941 166.88424655 56.02236935 166.87660377 58.24047852 166.87988281 C61.44113903 166.88275787 64.63950295 166.84725508 67.83984375 166.8046875 C68.82145981 166.81378143 69.80307587 166.82287537 70.81443787 166.83224487 C78.11201499 166.68038217 82.35374926 164.5227265 88 160 C88.93714844 159.32195312 89.87429688 158.64390625 90.83984375 157.9453125 C99.59568572 150.06030472 104.32634099 137.50356456 105.23828125 125.9921875 C105.48434059 115.65769514 103.53498917 106.26483924 97 98 C96.35417969 97.17628906 96.35417969 97.17628906 95.6953125 96.3359375 C93.13108845 93.18956529 90.42486989 90.42760776 87.32983398 87.80221558 C82.85029917 83.92085661 78.65673613 79.79746345 74.47265625 75.60205078 C73.66194168 74.79308853 72.85122711 73.98412628 72.01594543 73.15065002 C69.36229193 70.50136468 66.71227336 67.84847826 64.0625 65.1953125 C62.21319954 63.34668606 60.36375068 61.49820806 58.51416016 59.64987183 C54.65266207 55.79018498 50.79325991 51.92841183 46.93505859 48.06542969 C42.47088123 43.59578466 38.00307642 39.12978979 33.53342342 34.66562092 C29.22654672 30.36381728 24.92247205 26.05922171 20.61959839 21.75341415 C18.78939318 19.92253993 16.95843952 18.09241356 15.1267395 16.26303482 C12.57946946 13.71828725 10.03539775 11.17038603 7.4921875 8.62158203 C6.72864456 7.86006332 5.96510162 7.09854462 5.17842102 6.31394958 C4.49160751 5.62431625 3.80479401 4.93468292 3.09716797 4.22415161 C2.49548798 3.62209459 1.89380798 3.02003757 1.27389526 2.3997364 C0 1 0 1 0 0 Z " fill="#73BAF5" transform="translate(419,98)"/>
<path d="M0 0 C0.79857422 -0.01998047 1.59714844 -0.03996094 2.41992188 -0.06054688 C3.21076172 -0.05990234 4.00160156 -0.05925781 4.81640625 -0.05859375 C5.5132251 -0.06044678 6.21004395 -0.0622998 6.92797852 -0.06420898 C16.26677242 1.80282297 22.11137856 8.5685741 28.5 15.07421875 C29.54151138 16.12066094 30.58384319 17.16628713 31.62695312 18.21113586 C33.79795754 20.38973969 35.96237048 22.57460113 38.12158203 24.76489258 C40.89499249 27.57814707 43.67931113 30.38027831 46.46788025 33.17850018 C49.12798176 35.8485407 51.78308283 38.52352885 54.4375 41.19921875 C54.94580353 41.71091803 55.45410706 42.2226173 55.97781372 42.74982262 C57.40463157 44.18815262 58.82742521 45.63047133 60.25 47.07299805 C61.06082031 47.89366257 61.87164062 48.71432709 62.70703125 49.55986023 C64.4375 51.4375 64.4375 51.4375 64.4375 52.4375 C63.58424889 52.43630661 63.58424889 52.43630661 62.71376038 52.43508911 C56.75906821 52.43263931 50.8056691 52.47207772 44.85131836 52.53515625 C42.63328059 52.55325345 40.41513065 52.56089623 38.19702148 52.55761719 C34.99636097 52.55474213 31.79799705 52.59024492 28.59765625 52.6328125 C27.61604019 52.62371857 26.63442413 52.61462463 25.62306213 52.60525513 C16.56187117 52.79381866 11.28285413 56.76050238 4.75 62.6875 C-3.65324101 71.59649163 -8.63116855 83.23234527 -9 95.5 C-8.42491 110.51183208 -2.8926632 120.73137635 7.58056641 131.05053711 C8.96650749 132.43976379 8.96650749 132.43976379 10.38044739 133.85705566 C12.89815273 136.38014883 15.42801156 138.89071658 17.9604764 141.39898372 C20.6129912 144.03011477 23.25447447 146.67227724 25.89730835 149.31312561 C30.33085709 153.74024234 34.77171821 158.15990783 39.21777344 162.57446289 C44.92786981 168.24415693 50.62637226 173.92535484 56.32110023 179.61048031 C61.21959048 184.50067848 66.12254076 189.38639751 71.02663374 194.27097631 C72.07896837 195.31926089 73.13114799 196.36770112 74.18317461 197.41629481 C77.63615966 200.85801003 81.09354043 204.29524128 84.55322266 207.73022461 C85.42806808 208.60238113 86.30291351 209.47453766 87.20426941 210.37312317 C88.00058273 211.16228119 88.79689606 211.95143921 89.61734009 212.76451111 C90.3108639 213.45376143 91.0043877 214.14301176 91.71892738 214.85314846 C93.36305966 216.51588279 93.36305966 216.51588279 95.4375 217.4375 C95.4375 218.0975 95.4375 218.7575 95.4375 219.4375 C83.12793974 219.50722867 70.81842702 219.56042703 58.50870895 219.59293652 C52.79186745 219.60854501 47.07516179 219.62969485 41.35839844 219.66381836 C35.83408536 219.6965841 30.30990238 219.71438918 24.78549957 219.72213173 C22.68533533 219.72764446 20.58517764 219.73840892 18.48506927 219.75469017 C0.89799702 219.88552496 -15.22254 218.79444644 -28.875 206.2578125 C-40.79511843 193.3995366 -44.87223505 180.52613818 -44.8371582 163.32714844 C-44.84226913 162.02852371 -44.84738007 160.72989899 -44.85264587 159.391922 C-44.86597139 155.84828562 -44.86662155 152.30475634 -44.86408257 148.76109982 C-44.86300801 145.79185364 -44.86790883 142.82262871 -44.872688 139.85338712 C-44.88376189 132.84055553 -44.88423319 125.8277775 -44.87817383 118.81494141 C-44.87214162 111.60768053 -44.88443067 104.40061526 -44.9057439 97.19338775 C-44.92342784 90.98246202 -44.92935042 84.77159815 -44.92610615 78.5606482 C-44.92430321 74.86144071 -44.92682923 71.16237261 -44.94082069 67.46318817 C-44.95586828 63.3304754 -44.94636991 59.19815377 -44.93481445 55.06542969 C-44.94245819 53.85879166 -44.95010193 52.65215363 -44.95797729 51.40895081 C-44.86643005 36.51921519 -40.83463747 23.32908799 -30.5390625 12.28515625 C-21.49087828 3.827071 -12.34204404 -0.11010745 0 0 Z " fill="#D8677C" transform="translate(353.5625,45.5625)"/>
<path d="M0 0 C0.66248749 -0.0004985 1.32497498 -0.00099701 2.00753784 -0.00151062 C3.41130567 0.00082882 4.81507778 0.0105499 6.21875 0.02709961 C8.33893642 0.05046985 10.45784438 0.04768784 12.578125 0.04101562 C25.2911937 0.06576053 34.63105963 1.36764893 44.22265625 10.18359375 C52.3794902 18.77522695 53.86888165 27.45336524 53.78540039 38.95898438 C53.53154195 45.99053351 52.13139402 51.4162935 48.2421875 57.36328125 C47.57316406 58.48089844 47.57316406 58.48089844 46.890625 59.62109375 C43.43946037 64.84604133 39.11353803 68.14284323 33.2421875 70.36328125 C31.9221875 70.36328125 30.6021875 70.36328125 29.2421875 70.36328125 C29.2421875 71.02328125 29.2421875 71.68328125 29.2421875 72.36328125 C24.00947181 72.43731837 18.77705949 72.49182908 13.54394531 72.52807617 C11.76296683 72.54318298 9.98202566 72.5636696 8.20117188 72.58959961 C5.64443772 72.62590068 3.0881944 72.64298813 0.53125 72.65625 C-0.26775726 72.67173386 -1.06676453 72.68721771 -1.88998413 72.70317078 C-4.13427734 72.70385742 -4.13427734 72.70385742 -7.7578125 72.36328125 C-10.13379509 68.79930737 -10.01562143 67.2420476 -10.0324707 63.01171875 C-10.04200272 61.70025879 -10.05153473 60.38879883 -10.06135559 59.03759766 C-10.06109419 57.60449192 -10.06015727 56.17138616 -10.05859375 54.73828125 C-10.06248042 53.2700183 -10.06681503 51.80175646 -10.07157898 50.33349609 C-10.07904029 47.25679885 -10.0787503 44.18021636 -10.07348633 41.10351562 C-10.06768723 37.158906 -10.08463327 33.21476523 -10.107831 29.27023315 C-10.1225542 26.23849741 -10.12344208 23.20687502 -10.12032127 20.17510986 C-10.12083505 18.72063263 -10.12608345 17.26614915 -10.13613319 15.81170654 C-10.14845349 13.7794553 -10.13977922 11.74710941 -10.13012695 9.71484375 C-10.13075638 8.55807129 -10.1313858 7.40129883 -10.1320343 6.20947266 C-9.7578125 3.36328125 -9.7578125 3.36328125 -8.42475891 1.48957825 C-5.7259953 -0.3338813 -3.20931391 -0.00780496 0 0 Z " fill="#FBFBFB" transform="translate(749.7578125,348.63671875)"/>
<path d="M0 0 C1.06243423 0.00607269 1.06243423 0.00607269 2.14633179 0.01226807 C2.87919403 0.01035461 3.61205627 0.00844116 4.36712646 0.00646973 C5.92227521 0.0051071 7.47743529 0.00880896 9.03256226 0.01715088 C11.38976367 0.02775804 13.74618686 0.0173066 16.10336304 0.00445557 C17.61768761 0.00577894 19.13201171 0.00834501 20.64633179 0.01226807 C21.34247589 0.0082196 22.03862 0.00417114 22.75585938 0 C31.0867503 0.07796471 38.16037263 2.12924821 44.79476929 7.27789307 C49.47840219 12.44189858 50.13763599 15.66626122 50.08383179 22.50836182 C49.68674017 26.31292876 48.32543761 28.45800551 45.79476929 31.27789307 C44.80476929 31.93789307 43.81476929 32.59789307 42.79476929 33.27789307 C43.3374646 33.67621338 43.88015991 34.07453369 44.43930054 34.48492432 C45.15473022 35.014729 45.87015991 35.54453369 46.60726929 36.09039307 C47.3149646 36.61246338 48.02265991 37.13453369 48.75180054 37.67242432 C51.84004903 40.09932705 53.53321616 41.49323369 54.79476929 45.27789307 C55.52018872 52.27300903 55.50134865 57.89500326 51.20101929 63.66461182 C46.15417313 69.45446588 39.9035567 71.72213544 32.32720947 72.54632568 C29.84101015 72.63691454 27.37214197 72.64249109 24.88461304 72.60601807 C23.99109634 72.6041449 23.09757965 72.60227173 22.17698669 72.6003418 C20.31069135 72.59367854 18.44440858 72.57988033 16.57821655 72.55914307 C13.70821302 72.52762892 10.83875786 72.51812903 7.96859741 72.51226807 C6.14892918 72.50311089 4.32926656 72.49273926 2.50961304 72.48101807 C1.64931992 72.47676819 0.78902679 72.47251831 -0.09733582 72.46813965 C-6.08797776 72.39514602 -6.08797776 72.39514602 -7.20523071 71.27789307 C-7.31001978 69.14132264 -7.34379725 67.00124969 -7.35049438 64.86212158 C-7.353853 64.19219177 -7.35721161 63.52226196 -7.360672 62.83203125 C-7.37020792 60.60693532 -7.37212643 58.38191443 -7.37319946 56.15679932 C-7.37641024 54.61602242 -7.37977418 53.07524584 -7.38328552 51.5344696 C-7.38928343 48.30041802 -7.39112475 45.06639318 -7.39053345 41.83233643 C-7.39043179 37.68141786 -7.40408425 33.53067024 -7.42130566 29.37979221 C-7.43240611 26.19627591 -7.43445326 23.01280118 -7.43392372 19.8292675 C-7.43510679 18.29860787 -7.43954674 16.76794727 -7.44725609 15.23730659 C-7.4570167 13.09910118 -7.45419377 10.96127009 -7.44815063 8.82305908 C-7.44957565 7.60473892 -7.45100067 6.38641876 -7.45246887 5.13117981 C-7.00820485 0.00408843 -4.59154418 0.04421126 0 0 Z " fill="#393938" transform="translate(433.2052307128906,348.72210693359375)"/>
<path d="M0 0 C0.75127167 -0.00428513 1.50254333 -0.00857025 2.27658081 -0.01298523 C3.86862177 -0.01872787 5.46068897 -0.01922926 7.05273438 -0.01489258 C9.46271016 -0.0117571 11.87142819 -0.03510493 14.28125 -0.06054688 C22.14075923 -0.09292711 29.05576966 0.08723151 36.3671875 3.30078125 C36.99351074 3.57591553 37.61983398 3.8510498 38.26513672 4.13452148 C44.36005328 7.14984206 47.32133385 11.56164073 49.6796875 17.73828125 C51.20996637 25.66790814 50.67603175 31.40408083 46.3671875 38.30078125 C41.9438138 43.67529489 37.14489493 45.40938209 30.3671875 46.30078125 C30.3671875 46.96078125 30.3671875 47.62078125 30.3671875 48.30078125 C31.0271875 48.30078125 31.6871875 48.30078125 32.3671875 48.30078125 C33.7421875 49.6640625 33.7421875 49.6640625 35.3671875 51.61328125 C37.53347029 54.18717328 39.72376168 56.67344539 42.05078125 59.10546875 C42.95957031 60.05679688 43.86835937 61.008125 44.8046875 61.98828125 C45.66964844 62.87902344 46.53460937 63.76976562 47.42578125 64.6875 C49.3671875 67.30078125 49.3671875 67.30078125 49.71484375 70.0703125 C49.3671875 72.30078125 49.3671875 72.30078125 48.3671875 73.30078125 C45.32434596 73.66961053 43.87804897 73.67741637 41.375 71.83203125 C40.75367188 71.16171875 40.13234375 70.49140625 39.4921875 69.80078125 C38.80382812 69.06730469 38.11546875 68.33382812 37.40625 67.578125 C36.73335937 66.82660156 36.06046875 66.07507813 35.3671875 65.30078125 C34.77679687 64.64207031 34.18640625 63.98335938 33.578125 63.3046875 C33.01351562 62.66402344 32.44890625 62.02335937 31.8671875 61.36328125 C31.28066406 60.71359375 30.69414063 60.06390625 30.08984375 59.39453125 C28.3671875 57.30078125 28.3671875 57.30078125 26.92578125 54.83203125 C24.91270862 51.76633993 23.54898221 50.20073168 20.3671875 48.30078125 C13.15434162 46.89332817 5.68538708 47.10347685 -1.6328125 47.30078125 C-1.60924683 48.322323 -1.60924683 48.322323 -1.58520508 49.36450195 C-1.52288028 52.44734406 -1.48382992 55.53005369 -1.4453125 58.61328125 C-1.42017578 59.68513672 -1.39503906 60.75699219 -1.36914062 61.86132812 C-1.35463867 63.40336914 -1.35463867 63.40336914 -1.33984375 64.9765625 C-1.31627808 66.39835815 -1.31627808 66.39835815 -1.29223633 67.84887695 C-1.6328125 70.30078125 -1.6328125 70.30078125 -2.98706055 72.14526367 C-4.6328125 73.30078125 -4.6328125 73.30078125 -7.2578125 73.11328125 C-9.6328125 72.30078125 -9.6328125 72.30078125 -10.6328125 70.30078125 C-10.74001316 68.1569544 -10.78170679 66.00975179 -10.79394531 63.86328125 C-10.79891022 63.20295898 -10.80387512 62.54263672 -10.80899048 61.86230469 C-10.82361189 59.67511968 -10.83041293 57.48800712 -10.8359375 55.30078125 C-10.84168763 53.78385414 -10.84744537 52.26692706 -10.85321045 50.75 C-10.86371944 47.56900696 -10.86956321 44.38803921 -10.87304688 41.20703125 C-10.87854078 37.12444766 -10.90258797 33.04219605 -10.93101883 28.9597168 C-10.94960824 25.82681285 -10.95484875 22.69398961 -10.95638275 19.56103516 C-10.95941666 18.05548277 -10.96746996 16.54993206 -10.98056793 15.04443359 C-10.99755708 12.94212252 -10.99576674 10.84063244 -10.98925781 8.73828125 C-10.99290344 7.54074219 -10.99654907 6.34320313 -11.00030518 5.109375 C-10.87903259 4.18253906 -10.75776001 3.25570313 -10.6328125 2.30078125 C-6.979747 -0.13459575 -4.22566512 -0.00533521 0 0 Z " fill="#3D3D3C" transform="translate(676.6328125,348.69921875)"/>
<path d="M0 0 C2.72779524 1.09774326 3.20666471 2.28487619 4.51879883 4.89135742 C4.97029297 5.77178711 5.42178711 6.6522168 5.88696289 7.55932617 C6.60770996 9.01725586 6.60770996 9.01725586 7.34301758 10.50463867 C8.11210449 12.01864258 8.11210449 12.01864258 8.89672852 13.56323242 C10.31728237 16.36876275 11.72462948 19.18041697 13.12457275 21.99627686 C14.05534973 23.86704891 14.98945047 25.73612669 15.92456055 27.60473633 C16.24430847 28.24368835 16.5640564 28.88264038 16.89349365 29.54095459 C17.21585999 30.18510315 17.53822632 30.82925171 17.87036133 31.49291992 C19.8222127 35.3940655 21.77137463 39.29646738 23.7097168 43.2043457 C27.5547822 50.94591634 31.52137464 58.59411759 35.80786133 66.10229492 C37.08472938 68.93751312 37.30647217 70.74784778 37.03051758 73.81713867 C33.56551758 74.31213867 33.56551758 74.31213867 30.03051758 74.81713867 C26.73051758 68.54713867 23.43051758 62.27713867 20.03051758 55.81713867 C5.84051758 55.48713867 -8.34948242 55.15713867 -22.96948242 54.81713867 C-23.62948242 57.12713867 -24.28948242 59.43713867 -24.96948242 61.81713867 C-26.08693951 63.97979234 -27.27453407 66.10776709 -28.53198242 68.19213867 C-29.46204102 69.75061523 -29.46204102 69.75061523 -30.41088867 71.34057617 C-31.96948242 73.81713867 -31.96948242 73.81713867 -32.96948242 74.81713867 C-35.46948242 74.94213867 -35.46948242 74.94213867 -37.96948242 74.81713867 C-38.96948242 73.81713867 -38.96948242 73.81713867 -39.28198242 71.25463867 C-38.87759512 66.80637832 -37.15144105 63.65504805 -34.96948242 59.81713867 C-34.30948242 59.81713867 -33.64948242 59.81713867 -32.96948242 59.81713867 C-32.96948242 58.49713867 -32.96948242 57.17713867 -32.96948242 55.81713867 C-32.30948242 55.81713867 -31.64948242 55.81713867 -30.96948242 55.81713867 C-30.85934814 55.1079126 -30.74921387 54.39868652 -30.63574219 53.66796875 C-29.90436779 50.5385225 -28.76463535 48.0676697 -27.30932617 45.20385742 C-26.76663086 44.12797363 -26.22393555 43.05208984 -25.66479492 41.94360352 C-25.0847168 40.80874512 -24.50463867 39.67388672 -23.90698242 38.50463867 C-22.71806248 36.15704211 -21.52926016 33.80938597 -20.34057617 31.46166992 C-19.76162598 30.32294434 -19.18267578 29.18421875 -18.58618164 28.01098633 C-16.84899149 24.57910448 -15.14502346 21.13213301 -13.44873047 17.67993164 C-4.53177066 -0.42076314 -4.53177066 -0.42076314 0 0 Z " fill="#393938" transform="translate(617.969482421875,347.182861328125)"/>
<path d="M0 0 C2.63397585 1.17729996 3.16621392 2.39117572 4.45629883 4.95385742 C4.90779297 5.83428711 5.35928711 6.7147168 5.82446289 7.62182617 C6.54520996 9.07975586 6.54520996 9.07975586 7.28051758 10.56713867 C8.04960449 12.08114258 8.04960449 12.08114258 8.83422852 13.62573242 C10.25478237 16.43126275 11.66212948 19.24291697 13.06207275 22.05877686 C13.99284973 23.92954891 14.92695047 25.79862669 15.86206055 27.66723633 C16.18180344 28.30618835 16.50154633 28.94514038 16.83097839 29.60345459 C17.15334976 30.24760315 17.47572113 30.89175171 17.80786133 31.55541992 C19.75979037 35.45617318 21.70874747 39.35829283 23.64501953 43.2668457 C27.49535843 51.02693289 31.48538231 58.6751093 35.84301758 66.16479492 C37.12693059 69.26312666 36.98465318 70.73153411 35.96801758 73.87963867 C33.65551758 74.56713867 33.65551758 74.56713867 30.96801758 74.87963867 C27.96801758 71.87963867 27.96801758 71.87963867 19.96801758 55.87963867 C5.77801758 55.54963867 -8.41198242 55.21963867 -23.03198242 54.87963867 C-23.36198242 56.19963867 -23.69198242 57.51963867 -24.03198242 58.87963867 C-25.13972623 61.28391471 -26.27497939 63.64482616 -27.46948242 66.00463867 C-27.78208008 66.63756836 -28.09467773 67.27049805 -28.41674805 67.92260742 C-29.7561559 70.59009622 -30.90745768 72.75511393 -33.03198242 74.87963867 C-37.58753798 74.32408312 -37.58753798 74.32408312 -39.03198242 72.87963867 C-38.71824002 66.6932821 -36.44853038 62.29027301 -33.46948242 56.94213867 C-32.55137369 55.24890938 -31.63472762 53.55488626 -30.71948242 51.86010742 C-30.2631543 51.02012207 -29.80682617 50.18013672 -29.33666992 49.31469727 C-27.47062084 45.83191779 -25.71404527 42.29940875 -23.96948242 38.75463867 C-20.84454121 32.4373913 -17.58565206 26.19998145 -14.25976562 19.98632812 C-11.46764309 14.75620294 -8.84514385 9.46785025 -6.32104492 4.10229492 C-4.72878936 1.35686033 -3.32830234 -0.19714683 0 0 Z " fill="#363635" transform="translate(245.031982421875,347.120361328125)"/>
<path d="M0 0 C2.57421875 0.375 2.57421875 0.375 4.2421875 2 C4.74363281 2.78375 5.24507813 3.5675 5.76171875 4.375 C6.65890625 5.75171875 6.65890625 5.75171875 7.57421875 7.15625 C8.56421875 8.74953125 8.56421875 8.74953125 9.57421875 10.375 C10.32400205 11.57305231 11.07401224 12.77096265 11.82421875 13.96875 C13.05617204 15.94027597 14.28540874 17.91331235 15.50805664 19.890625 C20.65472232 28.18924562 26.11588965 36.27937361 31.57421875 44.375 C32.33605469 43.12396484 32.33605469 43.12396484 33.11328125 41.84765625 C33.80164063 40.72230469 34.49 39.59695313 35.19921875 38.4375 C36.20855469 36.78427734 36.20855469 36.78427734 37.23828125 35.09765625 C38.90318588 32.40799919 40.63943238 29.77733313 42.41015625 27.15625 C44.71681136 23.72325002 46.88796876 20.2325935 49.01171875 16.68359375 C49.59695313 15.72001953 50.1821875 14.75644531 50.78515625 13.76367188 C51.99348645 11.77045469 53.18586526 9.76749259 54.36328125 7.75585938 C54.94851563 6.80388672 55.53375 5.85191406 56.13671875 4.87109375 C56.65363281 4.00669678 57.17054688 3.1422998 57.703125 2.25170898 C59.57421875 0.375 59.57421875 0.375 62.7890625 0.09399414 C63.70816406 0.18672607 64.62726563 0.27945801 65.57421875 0.375 C67.00742424 3.24141098 66.70943385 5.70054058 66.71948242 8.90429688 C66.72284103 9.57437271 66.72619965 10.24444855 66.72966003 10.93482971 C66.73917564 13.15448855 66.74111331 15.37407203 66.7421875 17.59375 C66.74539919 19.13309765 66.74876319 20.67244499 66.75227356 22.21179199 C66.75826602 25.43986723 66.76011329 28.66791568 66.75952148 31.89599609 C66.75941975 36.03903891 66.77308326 40.18191078 66.79029369 44.32491302 C66.80139272 47.50413813 66.80344136 50.68332159 66.80291176 53.86256409 C66.80409461 55.39043264 66.80853341 56.91830218 66.81624413 58.44615173 C66.82600381 60.57945874 66.82318241 62.71239053 66.81713867 64.84570312 C66.81856369 66.06100708 66.81998871 67.27631104 66.82145691 68.52844238 C66.57421875 71.375 66.57421875 71.375 64.57421875 73.375 C62.59421875 73.045 60.61421875 72.715 58.57421875 72.375 C58.24421875 54.885 57.91421875 37.395 57.57421875 19.375 C53.94421875 25.315 50.31421875 31.255 46.57421875 37.375 C44.38834846 40.75168023 42.20156319 44.10781465 39.94921875 47.4375 C39.43488281 48.20642578 38.92054688 48.97535156 38.390625 49.76757812 C34.0136759 56.28680705 34.0136759 56.28680705 31.296875 56.83203125 C28.57421875 56.375 28.57421875 56.375 26.3203125 53.76171875 C25.53260068 52.54017986 24.76435731 51.30595581 24.01171875 50.0625 C23.5947876 49.40548096 23.17785645 48.74846191 22.74829102 48.0715332 C21.83753754 46.63194435 20.93483008 45.1872424 20.0390625 43.73828125 C18.47722645 41.21851909 16.88793788 38.71765949 15.29296875 36.21875 C13.16866859 32.88414746 11.04958706 29.54650121 8.9453125 26.19921875 C8.5114624 25.50916748 8.0776123 24.81911621 7.63061523 24.1081543 C6.57421875 22.375 6.57421875 22.375 5.57421875 20.375 C5.5661319 21.00949066 5.55804504 21.64398132 5.54971313 22.29769897 C5.46385692 28.88357064 5.36436236 35.46913471 5.25683594 42.0546875 C5.21848113 44.51459602 5.18363991 46.97456187 5.15234375 49.43457031 C5.10683424 52.96440163 5.04881677 56.49383595 4.98828125 60.0234375 C4.97095444 61.68129776 4.97095444 61.68129776 4.95327759 63.37265015 C4.9334079 64.39355743 4.91353821 65.41446472 4.89306641 66.46630859 C4.87974274 67.36787689 4.86641907 68.26944519 4.85269165 69.19833374 C4.57421875 71.375 4.57421875 71.375 2.57421875 73.375 C0.07421875 73.625 0.07421875 73.625 -2.42578125 73.375 C-5.23725247 70.56352878 -4.67941403 68.78392831 -4.68457031 64.84570312 C-4.68807495 64.17562729 -4.69157959 63.50555145 -4.69519043 62.81517029 C-4.70400857 60.59542548 -4.69815849 58.37599817 -4.69140625 56.15625 C-4.69275288 54.61690204 -4.6946934 53.0775545 -4.69720459 51.53820801 C-4.70015596 48.31009883 -4.69585786 45.08210024 -4.68652344 41.85400391 C-4.67512882 37.71094206 -4.68168824 33.56813931 -4.69366837 29.42508698 C-4.70088667 26.24585 -4.69859919 23.06667472 -4.69341278 19.88743591 C-4.6920762 18.35957305 -4.69372431 16.83170464 -4.69837189 15.30384827 C-4.70343672 13.17051301 -4.69572794 11.03760055 -4.68457031 8.90429688 C-4.68297913 7.68899292 -4.68138794 6.47368896 -4.67974854 5.22155762 C-4.35479339 1.57934228 -3.65352561 0.56479623 0 0 Z " fill="#3C3B3B" transform="translate(297.42578125,348.625)"/>
<path d="M0 0 C0.66248749 -0.0004985 1.32497498 -0.00099701 2.00753784 -0.00151062 C3.41130567 0.00082882 4.81507778 0.0105499 6.21875 0.02709961 C8.33893642 0.05046985 10.45784438 0.04768784 12.578125 0.04101562 C25.2911937 0.06576053 34.63105963 1.36764893 44.22265625 10.18359375 C52.3794902 18.77522695 53.86888165 27.45336524 53.78540039 38.95898438 C53.53154195 45.99053351 52.13139402 51.4162935 48.2421875 57.36328125 C47.57316406 58.48089844 47.57316406 58.48089844 46.890625 59.62109375 C43.43946037 64.84604133 39.11353803 68.14284323 33.2421875 70.36328125 C31.9221875 70.36328125 30.6021875 70.36328125 29.2421875 70.36328125 C29.2421875 71.02328125 29.2421875 71.68328125 29.2421875 72.36328125 C24.00947181 72.43731837 18.77705949 72.49182908 13.54394531 72.52807617 C11.76296683 72.54318298 9.98202566 72.5636696 8.20117188 72.58959961 C5.64443772 72.62590068 3.0881944 72.64298813 0.53125 72.65625 C-0.26775726 72.67173386 -1.06676453 72.68721771 -1.88998413 72.70317078 C-4.13427734 72.70385742 -4.13427734 72.70385742 -7.7578125 72.36328125 C-10.13379509 68.79930737 -10.01562143 67.2420476 -10.0324707 63.01171875 C-10.04200272 61.70025879 -10.05153473 60.38879883 -10.06135559 59.03759766 C-10.06109419 57.60449192 -10.06015727 56.17138616 -10.05859375 54.73828125 C-10.06248042 53.2700183 -10.06681503 51.80175646 -10.07157898 50.33349609 C-10.07904029 47.25679885 -10.0787503 44.18021636 -10.07348633 41.10351562 C-10.06768723 37.158906 -10.08463327 33.21476523 -10.107831 29.27023315 C-10.1225542 26.23849741 -10.12344208 23.20687502 -10.12032127 20.17510986 C-10.12083505 18.72063263 -10.12608345 17.26614915 -10.13613319 15.81170654 C-10.14845349 13.7794553 -10.13977922 11.74710941 -10.13012695 9.71484375 C-10.13075638 8.55807129 -10.1313858 7.40129883 -10.1320343 6.20947266 C-9.7578125 3.36328125 -9.7578125 3.36328125 -8.42475891 1.48957825 C-5.7259953 -0.3338813 -3.20931391 -0.00780496 0 0 Z M-1.7578125 8.36328125 C-1.7578125 27.17328125 -1.7578125 45.98328125 -1.7578125 65.36328125 C20.00397728 66.95446717 20.00397728 66.95446717 37.63671875 58.17578125 C44.40093412 50.53929479 45.61203101 42.8740373 45.51953125 32.9765625 C44.8716706 24.5361244 41.33481296 18.11104112 35.2421875 12.36328125 C23.61920991 6.46796841 23.61920991 6.46796841 -1.7578125 8.36328125 Z " fill="#393939" transform="translate(749.7578125,348.63671875)"/>
<path d="M0 0 C8.68835588 5.87999843 14.27645357 13.23302893 16.4921875 23.56640625 C18.13007591 34.73201142 15.75353461 45.49482741 9.34375 54.875 C3.40954752 62.14137038 -3.66417218 67.94309292 -13.22705078 68.96875 C-25.06935376 69.79274151 -34.44434362 68.82909861 -43.9375 61.1875 C-51.83118125 53.69898115 -56.14993478 43.87251397 -56.5 33.0625 C-56.25852787 21.69910572 -53.3697893 12.37705831 -45.55859375 4.00390625 C-33.10688061 -7.58109832 -14.42283795 -8.3718772 0 0 Z M-41.05859375 10.75390625 C-48.10690196 19.66148041 -48.19495025 28.78914738 -47.1875 39.75 C-45.51319639 47.18912143 -40.44459751 53.62933106 -34.34375 58.1015625 C-27.29586184 62.11654797 -19.37680965 62.49558208 -11.5625 60.8125 C-4.23032059 58.51529357 1.3711048 53.55486514 5.3125 47 C8.95389244 39.11031638 9.46256656 27.57075632 6.75 19.25 C3.39994939 12.14097241 -2.14573033 7.01007855 -9.1875 3.75 C-21.06722216 0.75442239 -32.41222254 1.49380514 -41.05859375 10.75390625 Z " fill="#3D3C3C" transform="translate(557.1875,353.25)"/>
<path d="M0 0 C1.56127876 0.00033989 1.56127876 0.00033989 3.15409851 0.00068665 C4.83702751 0.02391243 4.83702751 0.02391243 6.55395508 0.04760742 C7.70390457 0.05185226 8.85385406 0.05609711 10.03865051 0.06047058 C13.71716574 0.07728428 17.39513625 0.1149424 21.07348633 0.15307617 C23.56501488 0.16811949 26.05655201 0.1818085 28.5480957 0.1940918 C34.66091226 0.22719664 40.77341038 0.27742312 46.88598633 0.34057617 C47.54598633 1.99057617 48.20598633 3.64057617 48.88598633 5.34057617 C46.88598633 7.34057617 46.88598633 7.34057617 44.86117554 7.58108521 C44.03066681 7.57664398 43.20015808 7.57220276 42.34448242 7.56762695 C41.40365814 7.56747589 40.46283386 7.56732483 39.49349976 7.56716919 C38.4757547 7.55684662 37.45800964 7.54652405 36.40942383 7.53588867 C35.36903961 7.53305878 34.3286554 7.53022888 33.25674438 7.52731323 C29.92470939 7.51609321 26.59294046 7.49098532 23.26098633 7.46557617 C21.00578187 7.45554873 18.75057321 7.44642247 16.49536133 7.43823242 C10.95871732 7.41784713 5.42265063 7.37870163 -0.11401367 7.34057617 C-0.11401367 15.92057617 -0.11401367 24.50057617 -0.11401367 33.34057617 C14.73598633 33.34057617 29.58598633 33.34057617 44.88598633 33.34057617 C45.88598633 38.34057617 45.88598633 38.34057617 44.88598633 40.34057617 C30.03598633 40.34057617 15.18598633 40.34057617 -0.11401367 40.34057617 C-0.11401367 48.59057617 -0.11401367 56.84057617 -0.11401367 65.34057617 C3.2555957 65.31737305 6.62520508 65.29416992 10.09692383 65.27026367 C13.3501752 65.25467896 16.60342247 65.24252749 19.85668945 65.23071289 C22.12265882 65.22063758 24.38861514 65.20697699 26.65454102 65.18969727 C29.90620134 65.16551606 33.1576902 65.15410854 36.40942383 65.14526367 C37.93604141 65.12977982 37.93604141 65.12977982 39.49349976 65.11398315 C40.43432404 65.11383209 41.37514832 65.11368103 42.34448242 65.11352539 C43.17499115 65.10908417 44.00549988 65.10464294 44.86117554 65.10006714 C46.88598633 65.34057617 46.88598633 65.34057617 48.88598633 67.34057617 C48.35027204 70.87629046 48.35027204 70.87629046 46.88598633 72.34057617 C45.2397169 72.44969281 43.58880235 72.48963863 41.93896484 72.50170898 C40.8843959 72.51131653 39.82982697 72.52092407 38.74330139 72.53082275 C37.02148903 72.53719757 37.02148903 72.53719757 35.26489258 72.54370117 C34.09466049 72.54940125 32.92442841 72.55510132 31.71873474 72.56097412 C29.23795481 72.57044058 26.7571622 72.5769646 24.27636719 72.58081055 C20.46828456 72.59052566 16.66073921 72.62153826 12.8527832 72.65307617 C10.44848955 72.65960476 8.04419202 72.6648558 5.63989258 72.66870117 C4.4940419 72.68104797 3.34819122 72.69339478 2.1676178 72.70611572 C1.1098967 72.70311462 0.0521756 72.70011353 -1.03759766 72.69702148 C-1.97167953 72.70066711 -2.90576141 72.70431274 -3.8681488 72.70806885 C-4.60928421 72.58679626 -5.35041962 72.46552368 -6.11401367 72.34057617 C-8.48999626 68.77660229 -8.3718226 67.21934252 -8.38867188 62.98901367 C-8.39820389 61.67755371 -8.4077359 60.36609375 -8.41755676 59.01489258 C-8.41729536 57.58178684 -8.41635844 56.14868108 -8.41479492 54.71557617 C-8.41868159 53.24731322 -8.4230162 51.77905139 -8.42778015 50.31079102 C-8.43524146 47.23409377 -8.43495147 44.15751128 -8.4296875 41.08081055 C-8.4238884 37.13620092 -8.44083444 33.19206015 -8.46403217 29.24752808 C-8.47875538 26.21579233 -8.47964325 23.18416994 -8.47652245 20.15240479 C-8.47703623 18.69792755 -8.48228463 17.24344407 -8.49233437 15.78900146 C-8.50465466 13.75675023 -8.49598039 11.72440433 -8.48632812 9.69213867 C-8.48695755 8.53536621 -8.48758698 7.37859375 -8.48823547 6.18676758 C-8.11401367 3.34057617 -8.11401367 3.34057617 -6.91036987 1.46488953 C-4.49246117 -0.04844455 -2.84650654 -0.0206768 0 0 Z " fill="#323332" transform="translate(150.114013671875,348.659423828125)"/>
<path d="M0 0 C7.239375 -0.0928125 7.239375 -0.0928125 14.625 -0.1875 C16.89238037 -0.22846802 16.89238037 -0.22846802 19.20556641 -0.27026367 C21.01033447 -0.28150269 21.01033447 -0.28150269 22.8515625 -0.29296875 C24.07697754 -0.3086792 25.30239258 -0.32438965 26.56494141 -0.34057617 C31.76636057 0.17512957 35.69932809 2.26022099 39.3125 6 C40.04919922 6.7425 40.04919922 6.7425 40.80078125 7.5 C44.04221171 11.55442767 43.40784512 17.1058585 43 22 C41.60952123 25.99762645 39.68273821 27.34886932 36.0625 29.25 C31.09849032 31.58375407 26.98280551 32.12264912 21.484375 32.09765625 C20.35741211 32.09515869 19.23044922 32.09266113 18.06933594 32.09008789 C15.93126465 32.07643188 15.93126465 32.07643188 13.75 32.0625 C9.2125 32.041875 4.675 32.02125 0 32 C0 21.44 0 10.88 0 0 Z " fill="#FCFCFC" transform="translate(675,357)"/>
<path d="M0 0 C4.83902614 -0.09226957 9.67495234 -0.17176613 14.51416016 -0.21972656 C16.1571695 -0.23973571 17.80010859 -0.26695213 19.44287109 -0.30175781 C21.81625788 -0.35075305 24.18869649 -0.37307504 26.5625 -0.390625 C27.64893799 -0.42159271 27.64893799 -0.42159271 28.75732422 -0.45318604 C34.24473708 -0.45555402 38.40223876 0.98537875 43 4 C46.06880568 7.45240639 46.48760333 10.60380117 46.27734375 15.078125 C45.84435299 18.07856799 44.97987286 19.70079281 43 22 C36.87498692 26.47655277 31.24507582 27.12858056 23.73046875 27.09765625 C23.04946609 27.0962413 22.36846344 27.09482635 21.66682434 27.09336853 C19.50700353 27.08780298 17.34728911 27.07525703 15.1875 27.0625 C13.71679838 27.05748054 12.24609512 27.05291841 10.77539062 27.04882812 C7.18352049 27.03869877 3.59187835 27.01911703 0 27 C0 18.09 0 9.18 0 0 Z " fill="#FBFBFB" transform="translate(434,387)"/>
<path d="M0 0 C1.85202026 -0.00945648 1.85202026 -0.00945648 3.74145508 -0.019104 C5.09456525 -0.01552432 6.44767412 -0.01142238 7.80078125 -0.00683594 C9.18318754 -0.00818268 10.56559338 -0.01012329 11.94799805 -0.01263428 C14.84656276 -0.01558511 17.74500428 -0.0112893 20.64355469 -0.00195312 C24.36288762 0.00944152 28.08193193 0.00288181 31.80125427 -0.00909805 C34.65623152 -0.01631782 37.5111401 -0.01402822 40.36611938 -0.00884247 C41.73768142 -0.00750629 43.10924964 -0.0091526 44.48080444 -0.01380157 C46.39605595 -0.01886842 48.31132926 -0.00977925 50.2265625 0 C51.31751221 0.00159119 52.40846191 0.00318237 53.5324707 0.00482178 C56.11328125 0.25878906 56.11328125 0.25878906 58.11328125 2.25878906 C57.55772569 6.81434462 57.55772569 6.81434462 56.11328125 8.25878906 C47.20328125 8.25878906 38.29328125 8.25878906 29.11328125 8.25878906 C29.11328125 29.37878906 29.11328125 50.49878906 29.11328125 72.25878906 C25.64828125 72.75378906 25.64828125 72.75378906 22.11328125 73.25878906 C21.11328125 72.25878906 21.11328125 72.25878906 20.99302673 69.70884705 C20.99524734 68.57411453 20.99746796 67.43938202 20.99975586 66.27026367 C20.99983139 64.98901108 20.99990692 63.70775848 20.99998474 62.38768005 C21.00509216 60.97883059 21.01030816 59.56998151 21.015625 58.16113281 C21.01748923 56.72766672 21.01891311 55.29419999 21.01991272 53.86073303 C21.02373753 50.0811895 21.03356748 46.30168416 21.0446167 42.52215576 C21.05483162 38.66809608 21.05941051 34.81403024 21.06445312 30.95996094 C21.07518979 23.3928862 21.09226576 15.82584297 21.11328125 8.25878906 C19.84883179 8.26664429 19.84883179 8.26664429 18.55883789 8.2746582 C15.44100189 8.29166732 12.32318948 8.30422312 9.20532227 8.3137207 C7.85407739 8.31875963 6.50283799 8.32559083 5.15161133 8.33422852 C3.21307691 8.34631326 1.27450325 8.35148734 -0.6640625 8.35644531 C-2.41577759 8.36430054 -2.41577759 8.36430054 -4.20288086 8.37231445 C-6.88671875 8.25878906 -6.88671875 8.25878906 -7.88671875 7.25878906 C-8.07421875 4.82128906 -8.07421875 4.82128906 -7.88671875 2.25878906 C-5.1832996 -0.44463008 -3.7808783 0.00551454 0 0 Z " fill="#343434" transform="translate(73.88671875,348.7412109375)"/>
<path d="M0 0 C4.02036776 -0.04609339 8.04005587 -0.08586322 12.06054688 -0.10986328 C13.4261385 -0.1198759 14.79170894 -0.13349005 16.15722656 -0.15087891 C18.12815912 -0.17533573 20.09925284 -0.1854572 22.0703125 -0.1953125 C23.25383301 -0.20578613 24.43735352 -0.21625977 25.65673828 -0.22705078 C30.55732332 0.10576243 33.93339059 1.1704149 37.8125 4.1875 C40.51022145 7.65599901 41.07694472 9.61415117 41 14 C39.62814798 17.39696691 38.43018081 19.32772028 35.04663086 20.91821289 C27.61824094 23.28182685 20.62119767 23.34922468 12.875 23.1875 C11.01101563 23.16719727 11.01101563 23.16719727 9.109375 23.14648438 C6.07272624 23.11144612 3.03630363 23.05765133 0 23 C0 15.41 0 7.82 0 0 Z " fill="#FCFCFC" transform="translate(434,357)"/>
<path d="M0 0 C0.66 0 1.32 0 2 0 C3.29493195 2.39411837 4.58602172 4.7901788 5.875 7.1875 C6.23980469 7.86103516 6.60460937 8.53457031 6.98046875 9.22851562 C12 18.58309659 12 18.58309659 12 23 C12.66 23 13.32 23 14 23 C14.67119549 24.4562545 15.33681807 25.91507867 16 27.375 C16.37125 28.18710937 16.7425 28.99921875 17.125 29.8359375 C18 32 18 32 18 34 C6.45 34 -5.1 34 -17 34 C-11.62077053 22.48508691 -6.11203877 11.14156386 0 0 Z " fill="#F6F6F6" transform="translate(243,361)"/>
<path d="M0 0 C0.66 0 1.32 0 2 0 C4.28373583 4.51812232 6.56225804 9.0388203 8.8359375 13.56201172 C9.61054162 15.1011475 10.38657862 16.639563 11.1640625 18.17724609 C12.27979833 20.38452451 13.3903961 22.59432154 14.5 24.8046875 C14.84998047 25.49432587 15.19996094 26.18396423 15.56054688 26.89450073 C18 31.77225659 18 31.77225659 18 34 C6.78 34 -4.44 34 -16 34 C-15.05814601 29.29073004 -13.54141215 25.69944445 -11.375 21.5 C-11.02179687 20.80455078 -10.66859375 20.10910156 -10.3046875 19.39257812 C-6.97577317 12.87147274 -3.51819924 6.42071361 0 0 Z " fill="#FBFBFB" transform="translate(616,361)"/>
<path d="M0 0 C1.16781006 0.00523682 2.33562012 0.01047363 3.53881836 0.01586914 C4.79887695 0.0190918 6.05893555 0.02231445 7.35717773 0.02563477 C8.6976732 0.03399136 10.03816799 0.04245632 11.37866211 0.05102539 C12.72306153 0.05603879 14.06746271 0.06060197 15.41186523 0.06469727 C18.71334151 0.07653051 22.01473014 0.09301568 25.31616211 0.11352539 C25.97616211 1.76352539 26.63616211 3.41352539 27.31616211 5.11352539 C24.05794521 8.04344748 21.90254022 8.49738303 17.56225586 8.51196289 C16.46075195 8.51583008 15.35924805 8.51969727 14.22436523 8.52368164 C13.0790332 8.51208008 11.93370117 8.50047852 10.75366211 8.48852539 C9.60446289 8.50012695 8.45526367 8.51172852 7.27124023 8.52368164 C6.17102539 8.51981445 5.07081055 8.51594727 3.93725586 8.51196289 C2.93106201 8.5085791 1.92486816 8.50519531 0.88818359 8.50170898 C-1.68383789 8.11352539 -1.68383789 8.11352539 -3.55078125 6.72143555 C-4.68383789 5.11352539 -4.68383789 5.11352539 -4.43383789 2.98852539 C-3.29107618 0.13162112 -3.21270658 0.13589635 0 0 Z " fill="#3F3E3D" transform="translate(383.683837890625,383.886474609375)"/>
<path d="M0 0 C0.99 0.33 1.98 0.66 3 1 C2.34 1.66 1.68 2.32 1 3 C0.53513282 6.12196336 0.53513282 6.12196336 0.375 9.625 C0.30023438 10.81351562 0.22546875 12.00203125 0.1484375 13.2265625 C0.09945313 14.14179688 0.05046875 15.05703125 0 16 C-0.33 16 -0.66 16 -1 16 C-1.02685095 13.52076199 -1.04676547 11.0418116 -1.0625 8.5625 C-1.07506836 7.50192383 -1.07506836 7.50192383 -1.08789062 6.41992188 C-1.09653588 4.61306441 -1.05220011 2.80612397 -1 1 C-0.67 0.67 -0.34 0.34 0 0 Z " fill="#2C2D2B" transform="translate(427,350)"/>
</svg>
